<?xml version="1.0" encoding="UTF-8"?>
<svg version="1.1" xmlns="http://www.w3.org/2000/svg" width="23" height="23">
<path d="M0 0 C3.50063477 0.81264736 4.4469828 1.03967494 6.5 3.8125 C6.70344436 6.15211018 6.49953834 8.31827076 6.3125 10.65625 C6.551312 13.40258802 7.54327812 13.97807323 9.5 15.8125 C9.5 16.8025 9.5 17.7925 9.5 18.8125 C8.901875 18.503125 8.30375 18.19375 7.6875 17.875 C4.78587641 16.46563997 2.87460764 15.78806907 -0.375 16 C-4.36861956 15.76038283 -5.77613008 14.69201963 -8.5 11.8125 C-9.5 9.375 -9.5 9.375 -9.5 6.8125 C-7.32755651 2.1417465 -5.42336756 -0.29053755 0 0 Z M-5.4375 4.5 C-6.80816224 6.82652222 -6.80816224 6.82652222 -5.75 9.5 C-4.6977169 11.71005147 -4.6977169 11.71005147 -3.5 12.8125 C-1.08462162 13.22967279 -1.08462162 13.22967279 1.5 12.8125 C3.5785608 11.23554368 3.5785608 11.23554368 4.5 8.8125 C3.83228817 6.41986593 3.27902615 4.59152615 1.5 2.8125 C-1.68549797 2.39335553 -2.97124882 2.35197478 -5.4375 4.5 Z " fill="#767A89" transform="translate(12.5,1.1875)"/>
</svg>
